<?xml version="1.0" encoding="UTF-8" standalone="no"?>
<?xml-stylesheet href="graphs.css" type="text/css"?>
<!DOCTYPE svg PUBLIC "-//W3C//DTD SVG 1.1//EN"
 "http://www.w3.org/Graphics/SVG/1.1/DTD/svg11.dtd">
<!-- Generated by graphviz version 2.38.0 (20140413.2041)
 -->
<!-- Title: D Pages: 1 -->
<svg class="fileautoenc" width="80" height="332" 
 viewBox="0.00 0.00 80.00 332.00" xmlns="http://www.w3.org/2000/svg" xmlns:xlink="http://www.w3.org/1999/xlink">
<g id="graph0" class="graph" transform="scale(1 1) rotate(0) translate(4 328)">
<title>D</title>
<polygon fill="white" stroke="none" points="-4,4 -4,-328 76,-328 76,4 -4,4"/>
<!-- x -->
<g id="node1" class="node"><title>x</title>
<ellipse fill="none" stroke="black" cx="54" cy="-18" rx="18" ry="18"/>
<text text-anchor="middle" x="54" y="-14.3" font-family="Times,serif" font-size="14.00">x</text>
</g>
<!-- f -->
<g id="node2" class="node"><title>f</title>
<polygon fill="none" stroke="black" points="42.7685,-108 11.2315,-108 7.10543e-15,-72 54,-72 42.7685,-108"/>
<text text-anchor="middle" x="27" y="-86.3" font-family="Times,serif" font-size="14.00">f</text>
</g>
<!-- x&#45;&gt;f -->
<g id="edge1" class="edge"><title>x&#45;&gt;f</title>
<path fill="none" stroke="black" d="M47.7378,-35.2354C44.626,-43.3029 40.7859,-53.2589 37.2593,-62.4019"/>
<polygon fill="black" stroke="black" points="33.9382,-61.2865 33.6049,-71.8761 40.4692,-63.8056 33.9382,-61.2865"/>
</g>
<!-- x2 -->
<g id="node5" class="node"><title>x2</title>
<ellipse fill="none" stroke="black" cx="54" cy="-306" rx="18" ry="18"/>
<text text-anchor="middle" x="54" y="-302.3" font-family="Times,serif" font-size="14.00">x</text>
</g>
<!-- x&#45;&gt;x2 -->
<g id="edge5" class="edge"><title>x&#45;&gt;x2</title>
<path fill="none" stroke="black" stroke-dasharray="1,5" d="M57.6538,-36.0925C59.6758,-46.4315 61.9808,-59.9098 63,-72 69.7203,-151.717 69.7203,-172.283 63,-252 61.9808,-264.09 59.6758,-277.569 57.6538,-287.908"/>
</g>
<!-- z -->
<g id="node3" class="node"><title>z</title>
<ellipse fill="none" stroke="black" cx="27" cy="-162" rx="18" ry="18"/>
<text text-anchor="middle" x="27" y="-158.3" font-family="Times,serif" font-size="14.00">z</text>
</g>
<!-- f&#45;&gt;z -->
<g id="edge2" class="edge"><title>f&#45;&gt;z</title>
<path fill="none" stroke="black" d="M27,-108.303C27,-116.017 27,-125.288 27,-133.888"/>
<polygon fill="black" stroke="black" points="23.5001,-133.896 27,-143.896 30.5001,-133.896 23.5001,-133.896"/>
</g>
<!-- g -->
<g id="node4" class="node"><title>g</title>
<polygon fill="none" stroke="black" points="11.2315,-216 42.7685,-216 54,-252 -3.55271e-15,-252 11.2315,-216"/>
<text text-anchor="middle" x="27" y="-230.3" font-family="Times,serif" font-size="14.00">g</text>
</g>
<!-- z&#45;&gt;g -->
<g id="edge3" class="edge"><title>z&#45;&gt;g</title>
<path fill="none" stroke="black" d="M27,-180.303C27,-188.017 27,-197.288 27,-205.888"/>
<polygon fill="black" stroke="black" points="23.5001,-205.896 27,-215.896 30.5001,-205.896 23.5001,-205.896"/>
</g>
<!-- g&#45;&gt;x2 -->
<g id="edge4" class="edge"><title>g&#45;&gt;x2</title>
<path fill="none" stroke="black" d="M33.6742,-252.303C36.8394,-260.509 40.6839,-270.477 44.1739,-279.525"/>
<polygon fill="black" stroke="black" points="40.9085,-280.785 47.7728,-288.855 47.4395,-278.266 40.9085,-280.785"/>
</g>
</g>
</svg>
