<?xml version="1.0" encoding="UTF-8" standalone="no"?>
<?xml-stylesheet href="graphs.css" type="text/css"?>
<!DOCTYPE svg PUBLIC "-//W3C//DTD SVG 1.1//EN"
 "http://www.w3.org/Graphics/SVG/1.1/DTD/svg11.dtd">
<!-- Generated by graphviz version 2.38.0 (20140413.2041)
 -->
<!-- Title: D Pages: 1 -->
<svg class="filebiganleft" width="96" height="332" 
 viewBox="0.00 0.00 96.41 332.00" xmlns="http://www.w3.org/2000/svg" xmlns:xlink="http://www.w3.org/1999/xlink">
<g id="graph0" class="graph" transform="scale(1 1) rotate(0) translate(4 328)">
<title>D</title>
<polygon fill="white" stroke="none" points="-4,4 -4,-328 92.413,-328 92.413,4 -4,4"/>
<!-- z̃ -->
<g id="node1" class="node"><title>z̃</title>
<ellipse fill="none" stroke="black" cx="30" cy="-306" rx="18" ry="18"/>
<text text-anchor="middle" x="30" y="-302.3" font-family="Times,serif" font-size="14.00">z̃</text>
</g>
<!-- D -->
<g id="node2" class="node"><title>D</title>
<polygon fill="none" stroke="black" points="11.2315,-72 42.7685,-72 54,-108 -3.55271e-15,-108 11.2315,-72"/>
<text text-anchor="middle" x="27" y="-86.3" font-family="Times,serif" font-size="14.00">D</text>
</g>
<!-- z̃&#45;&gt;D -->
<g id="edge1" class="edge"><title>z̃&#45;&gt;D</title>
<path fill="none" stroke="black" d="M26.3462,-287.908C24.3242,-277.569 22.0192,-264.09 21,-252 17.0524,-205.173 20.8705,-150.466 23.9616,-118.39"/>
<polygon fill="black" stroke="black" points="27.4454,-118.726 24.9697,-108.424 20.481,-118.021 27.4454,-118.726"/>
</g>
<!-- Gz -->
<g id="node5" class="node"><title>Gz</title>
<polygon fill="none" stroke="black" points="76.1271,-252 41.8729,-252 29.6737,-216 88.3263,-216 76.1271,-252"/>
<text text-anchor="middle" x="59" y="-230.3" font-family="Times,serif" font-size="14.00">Gz</text>
</g>
<!-- z̃&#45;&gt;Gz -->
<g id="edge4" class="edge"><title>z̃&#45;&gt;Gz</title>
<path fill="none" stroke="black" d="M40.4659,-279.737C44.2394,-270.629 48.4089,-260.565 51.8361,-252.292"/>
<polygon fill="black" stroke="black" points="37.1745,-278.538 36.5805,-289.116 43.6415,-281.217 37.1745,-278.538"/>
</g>
<!-- y -->
<g id="node3" class="node"><title>y</title>
<ellipse fill="none" stroke="black" cx="27" cy="-18" rx="18" ry="18"/>
<text text-anchor="middle" x="27" y="-14.3" font-family="Times,serif" font-size="14.00">y</text>
</g>
<!-- D&#45;&gt;y -->
<g id="edge2" class="edge"><title>D&#45;&gt;y</title>
<path fill="none" stroke="black" d="M27,-71.6966C27,-63.9827 27,-54.7125 27,-46.1124"/>
<polygon fill="black" stroke="black" points="30.5001,-46.1043 27,-36.1043 23.5001,-46.1044 30.5001,-46.1043"/>
</g>
<!-- x -->
<g id="node4" class="node"><title>x</title>
<ellipse fill="none" stroke="black" cx="53" cy="-162" rx="18" ry="18"/>
<text text-anchor="middle" x="53" y="-158.3" font-family="Times,serif" font-size="14.00">x</text>
</g>
<!-- x&#45;&gt;D -->
<g id="edge3" class="edge"><title>x&#45;&gt;D</title>
<path fill="none" stroke="black" d="M46.9697,-144.765C43.9732,-136.697 40.2753,-126.741 36.8793,-117.598"/>
<polygon fill="black" stroke="black" points="40.1232,-116.28 33.3603,-108.124 33.5613,-118.717 40.1232,-116.28"/>
</g>
<!-- Gz&#45;&gt;x -->
<g id="edge5" class="edge"><title>Gz&#45;&gt;x</title>
<path fill="none" stroke="black" d="M56.657,-205.665C55.9189,-197.054 55.125,-187.791 54.4661,-180.104"/>
<polygon fill="black" stroke="black" points="53.1755,-206.032 57.5169,-215.697 60.15,-205.434 53.1755,-206.032"/>
</g>
</g>
</svg>
