<?xml version="1.0" encoding="UTF-8" standalone="no"?>
<?xml-stylesheet href="graphs.css" type="text/css"?>
<!DOCTYPE svg PUBLIC "-//W3C//DTD SVG 1.1//EN"
 "http://www.w3.org/Graphics/SVG/1.1/DTD/svg11.dtd">
<!-- Generated by graphviz version 2.38.0 (20140413.2041)
 -->
<!-- Title: D Pages: 1 -->
<svg class="filebiganright" width="97" height="332" 
 viewBox="0.00 0.00 97.33 332.00" xmlns="http://www.w3.org/2000/svg" xmlns:xlink="http://www.w3.org/1999/xlink">
<g id="graph0" class="graph" transform="scale(1 1) rotate(0) translate(4 328)">
<title>D</title>
<polygon fill="white" stroke="none" points="-4,4 -4,-328 93.3322,-328 93.3322,4 -4,4"/>
<!-- z -->
<g id="node1" class="node"><title>z</title>
<ellipse fill="none" stroke="black" cx="30" cy="-306" rx="18" ry="18"/>
<text text-anchor="middle" x="30" y="-302.3" font-family="Times,serif" font-size="14.00">z</text>
</g>
<!-- D -->
<g id="node2" class="node"><title>D</title>
<polygon fill="none" stroke="black" points="11.2315,-72 42.7685,-72 54,-108 -3.55271e-15,-108 11.2315,-72"/>
<text text-anchor="middle" x="27" y="-86.3" font-family="Times,serif" font-size="14.00">D</text>
</g>
<!-- z&#45;&gt;D -->
<g id="edge1" class="edge"><title>z&#45;&gt;D</title>
<path fill="none" stroke="black" d="M26.0443,-288.404C23.7736,-278.013 21.1508,-264.306 20,-252 15.6235,-205.199 20.0063,-150.484 23.5363,-118.4"/>
<polygon fill="black" stroke="black" points="27.0172,-118.766 24.6869,-108.431 20.0634,-117.963 27.0172,-118.766"/>
</g>
<!-- Gx -->
<g id="node4" class="node"><title>Gx</title>
<polygon fill="none" stroke="black" points="76.617,-252 41.383,-252 28.8347,-216 89.1653,-216 76.617,-252"/>
<text text-anchor="middle" x="59" y="-230.3" font-family="Times,serif" font-size="14.00">Gx</text>
</g>
<!-- z&#45;&gt;Gx -->
<g id="edge3" class="edge"><title>z&#45;&gt;Gx</title>
<path fill="none" stroke="black" d="M36.5805,-289.116C39.9542,-280.973 44.1528,-270.838 48.0014,-261.548"/>
<polygon fill="black" stroke="black" points="51.2421,-262.87 51.8361,-252.292 44.7751,-260.191 51.2421,-262.87"/>
</g>
<!-- y -->
<g id="node3" class="node"><title>y</title>
<ellipse fill="none" stroke="black" cx="27" cy="-18" rx="18" ry="18"/>
<text text-anchor="middle" x="27" y="-14.3" font-family="Times,serif" font-size="14.00">y</text>
</g>
<!-- D&#45;&gt;y -->
<g id="edge2" class="edge"><title>D&#45;&gt;y</title>
<path fill="none" stroke="black" d="M27,-71.6966C27,-63.9827 27,-54.7125 27,-46.1124"/>
<polygon fill="black" stroke="black" points="30.5001,-46.1043 27,-36.1043 23.5001,-46.1044 30.5001,-46.1043"/>
</g>
<!-- x̃ -->
<g id="node5" class="node"><title>x̃</title>
<ellipse fill="none" stroke="black" cx="53" cy="-162" rx="18" ry="18"/>
<text text-anchor="middle" x="53" y="-158.3" font-family="Times,serif" font-size="14.00">x̃</text>
</g>
<!-- Gx&#45;&gt;x̃ -->
<g id="edge4" class="edge"><title>Gx&#45;&gt;x̃</title>
<path fill="none" stroke="black" d="M57.5169,-215.697C56.8557,-207.983 56.0611,-198.712 55.3239,-190.112"/>
<polygon fill="black" stroke="black" points="58.8074,-189.769 54.4661,-180.104 51.833,-190.367 58.8074,-189.769"/>
</g>
<!-- x̃&#45;&gt;D -->
<g id="edge5" class="edge"><title>x̃&#45;&gt;D</title>
<path fill="none" stroke="black" d="M46.9697,-144.765C43.9732,-136.697 40.2753,-126.741 36.8793,-117.598"/>
<polygon fill="black" stroke="black" points="40.1232,-116.28 33.3603,-108.124 33.5613,-118.717 40.1232,-116.28"/>
</g>
</g>
</svg>
