<?xml version="1.0" encoding="UTF-8" standalone="no"?>
<?xml-stylesheet href="graphs.css" type="text/css"?>
<!DOCTYPE svg PUBLIC "-//W3C//DTD SVG 1.1//EN"
 "http://www.w3.org/Graphics/SVG/1.1/DTD/svg11.dtd">
<!-- Generated by graphviz version 2.38.0 (20140413.2041)
 -->
<!-- Title: D Pages: 1 -->
<svg class="filegan" width="134" height="332" 
 viewBox="0.00 0.00 134.00 332.00" xmlns="http://www.w3.org/2000/svg" xmlns:xlink="http://www.w3.org/1999/xlink">
<g id="graph0" class="graph" transform="scale(1 1) rotate(0) translate(4 328)">
<title>D</title>
<polygon fill="white" stroke="none" points="-4,4 -4,-328 130,-328 130,4 -4,4"/>
<!-- x -->
<g id="node1" class="node"><title>x</title>
<ellipse fill="none" stroke="black" cx="27" cy="-162" rx="18" ry="18"/>
<text text-anchor="middle" x="27" y="-158.3" font-family="Times,serif" font-size="14.00">x</text>
</g>
<!-- D -->
<g id="node2" class="node"><title>D</title>
<polygon fill="none" stroke="black" points="11.2315,-72 42.7685,-72 54,-108 -3.55271e-15,-108 11.2315,-72"/>
<text text-anchor="middle" x="27" y="-86.3" font-family="Times,serif" font-size="14.00">D</text>
</g>
<!-- x&#45;&gt;D -->
<g id="edge1" class="edge"><title>x&#45;&gt;D</title>
<path fill="none" stroke="black" d="M27,-143.697C27,-135.983 27,-126.712 27,-118.112"/>
<polygon fill="black" stroke="black" points="30.5001,-118.104 27,-108.104 23.5001,-118.104 30.5001,-118.104"/>
</g>
<!-- y -->
<g id="node3" class="node"><title>y</title>
<ellipse fill="none" stroke="black" cx="27" cy="-18" rx="18" ry="18"/>
<text text-anchor="middle" x="27" y="-14.3" font-family="Times,serif" font-size="14.00">y</text>
</g>
<!-- D&#45;&gt;y -->
<g id="edge2" class="edge"><title>D&#45;&gt;y</title>
<path fill="none" stroke="black" d="M27,-71.6966C27,-63.9827 27,-54.7125 27,-46.1124"/>
<polygon fill="black" stroke="black" points="30.5001,-46.1043 27,-36.1043 23.5001,-46.1044 30.5001,-46.1043"/>
</g>
<!-- x2 -->
<g id="node4" class="node"><title>x2</title>
<ellipse fill="none" stroke="black" cx="99" cy="-162" rx="18" ry="18"/>
<text text-anchor="middle" x="99" y="-158.3" font-family="Times,serif" font-size="14.00">x</text>
</g>
<!-- D2 -->
<g id="node5" class="node"><title>D2</title>
<polygon fill="none" stroke="black" points="83.2315,-72 114.768,-72 126,-108 72,-108 83.2315,-72"/>
<text text-anchor="middle" x="99" y="-86.3" font-family="Times,serif" font-size="14.00">D</text>
</g>
<!-- x2&#45;&gt;D2 -->
<g id="edge3" class="edge"><title>x2&#45;&gt;D2</title>
<path fill="none" stroke="black" d="M99,-143.697C99,-135.983 99,-126.712 99,-118.112"/>
<polygon fill="black" stroke="black" points="102.5,-118.104 99,-108.104 95.5001,-118.104 102.5,-118.104"/>
</g>
<!-- y2 -->
<g id="node7" class="node"><title>y2</title>
<ellipse fill="none" stroke="black" cx="99" cy="-18" rx="18" ry="18"/>
<text text-anchor="middle" x="99" y="-14.3" font-family="Times,serif" font-size="14.00">y</text>
</g>
<!-- D2&#45;&gt;y2 -->
<g id="edge4" class="edge"><title>D2&#45;&gt;y2</title>
<path fill="none" stroke="black" d="M99,-71.6966C99,-63.9827 99,-54.7125 99,-46.1124"/>
<polygon fill="black" stroke="black" points="102.5,-46.1043 99,-36.1043 95.5001,-46.1044 102.5,-46.1043"/>
</g>
<!-- G -->
<g id="node6" class="node"><title>G</title>
<polygon fill="none" stroke="black" points="114.768,-252 83.2315,-252 72,-216 126,-216 114.768,-252"/>
<text text-anchor="middle" x="99" y="-230.3" font-family="Times,serif" font-size="14.00">G</text>
</g>
<!-- G&#45;&gt;x2 -->
<g id="edge6" class="edge"><title>G&#45;&gt;x2</title>
<path fill="none" stroke="black" d="M99,-215.697C99,-207.983 99,-198.712 99,-190.112"/>
<polygon fill="black" stroke="black" points="102.5,-190.104 99,-180.104 95.5001,-190.104 102.5,-190.104"/>
</g>
<!-- z -->
<g id="node8" class="node"><title>z</title>
<ellipse fill="none" stroke="black" cx="99" cy="-306" rx="18" ry="18"/>
<text text-anchor="middle" x="99" y="-302.3" font-family="Times,serif" font-size="14.00">z</text>
</g>
<!-- z&#45;&gt;G -->
<g id="edge5" class="edge"><title>z&#45;&gt;G</title>
<path fill="none" stroke="black" d="M99,-287.697C99,-279.983 99,-270.712 99,-262.112"/>
<polygon fill="black" stroke="black" points="102.5,-262.104 99,-252.104 95.5001,-262.104 102.5,-262.104"/>
</g>
</g>
</svg>
