<?xml version="1.0" encoding="UTF-8" standalone="no"?>
<?xml-stylesheet href="graphs.css" type="text/css"?>
<!DOCTYPE svg PUBLIC "-//W3C//DTD SVG 1.1//EN"
 "http://www.w3.org/Graphics/SVG/1.1/DTD/svg11.dtd">
<!-- Generated by graphviz version 2.38.0 (20140413.2041)
 -->
<!-- Title: D Pages: 1 -->
<svg class="fileinfoganright" width="179" height="332" 
 viewBox="0.00 0.00 179.00 332.00" xmlns="http://www.w3.org/2000/svg" xmlns:xlink="http://www.w3.org/1999/xlink">
<g id="graph0" class="graph" transform="scale(1 1) rotate(0) translate(4 328)">
<title>D</title>
<polygon fill="white" stroke="none" points="-4,4 -4,-328 175,-328 175,4 -4,4"/>
<!-- x̃ -->
<g id="node1" class="node"><title>x̃</title>
<ellipse fill="none" stroke="black" cx="99" cy="-162" rx="18" ry="18"/>
<text text-anchor="middle" x="99" y="-158.3" font-family="Times,serif" font-size="14.00">x̃</text>
</g>
<!-- D -->
<g id="node2" class="node"><title>D</title>
<polygon fill="none" stroke="black" points="11.2315,-72 42.7685,-72 54,-108 -3.55271e-15,-108 11.2315,-72"/>
<text text-anchor="middle" x="27" y="-86.3" font-family="Times,serif" font-size="14.00">D</text>
</g>
<!-- x̃&#45;&gt;D -->
<g id="edge1" class="edge"><title>x̃&#45;&gt;D</title>
<path fill="none" stroke="black" d="M86.4586,-148.807C76.94,-139.553 63.5462,-126.531 51.8799,-115.189"/>
<polygon fill="black" stroke="black" points="54.1309,-112.496 44.5211,-108.034 49.2513,-117.515 54.1309,-112.496"/>
</g>
<!-- Q -->
<g id="node7" class="node"><title>Q</title>
<polygon fill="none" stroke="black" points="83.2315,-72 114.768,-72 126,-108 72,-108 83.2315,-72"/>
<text text-anchor="middle" x="99" y="-86.3" font-family="Times,serif" font-size="14.00">Q</text>
</g>
<!-- x̃&#45;&gt;Q -->
<g id="edge6" class="edge"><title>x̃&#45;&gt;Q</title>
<path fill="none" stroke="black" d="M99,-143.697C99,-135.983 99,-126.712 99,-118.112"/>
<polygon fill="black" stroke="black" points="102.5,-118.104 99,-108.104 95.5001,-118.104 102.5,-118.104"/>
</g>
<!-- y -->
<g id="node3" class="node"><title>y</title>
<ellipse fill="none" stroke="black" cx="27" cy="-18" rx="18" ry="18"/>
<text text-anchor="middle" x="27" y="-14.3" font-family="Times,serif" font-size="14.00">y</text>
</g>
<!-- D&#45;&gt;y -->
<g id="edge2" class="edge"><title>D&#45;&gt;y</title>
<path fill="none" stroke="black" d="M27,-71.6966C27,-63.9827 27,-54.7125 27,-46.1124"/>
<polygon fill="black" stroke="black" points="30.5001,-46.1043 27,-36.1043 23.5001,-46.1044 30.5001,-46.1043"/>
</g>
<!-- G -->
<g id="node4" class="node"><title>G</title>
<polygon fill="none" stroke="black" points="114.768,-252 83.2315,-252 72,-216 126,-216 114.768,-252"/>
<text text-anchor="middle" x="99" y="-230.3" font-family="Times,serif" font-size="14.00">G</text>
</g>
<!-- G&#45;&gt;x̃ -->
<g id="edge5" class="edge"><title>G&#45;&gt;x̃</title>
<path fill="none" stroke="black" d="M99,-215.697C99,-207.983 99,-198.712 99,-190.112"/>
<polygon fill="black" stroke="black" points="102.5,-190.104 99,-180.104 95.5001,-190.104 102.5,-190.104"/>
</g>
<!-- c -->
<g id="node5" class="node"><title>c</title>
<ellipse fill="none" stroke="black" cx="153" cy="-306" rx="18" ry="18"/>
<text text-anchor="middle" x="153" y="-302.3" font-family="Times,serif" font-size="14.00">c</text>
</g>
<!-- c&#45;&gt;G -->
<g id="edge3" class="edge"><title>c&#45;&gt;G</title>
<path fill="none" stroke="black" d="M142.331,-291.17C135.492,-282.304 126.413,-270.535 118.333,-260.061"/>
<polygon fill="black" stroke="black" points="121.008,-257.799 112.129,-252.019 115.466,-262.075 121.008,-257.799"/>
</g>
<!-- c2 -->
<g id="node8" class="node"><title>c2</title>
<ellipse fill="none" stroke="black" cx="126" cy="-18" rx="18" ry="18"/>
<text text-anchor="middle" x="126" y="-14.3" font-family="Times,serif" font-size="14.00">c</text>
</g>
<!-- c&#45;&gt;c2 -->
<g id="edge8" class="edge"><title>c&#45;&gt;c2</title>
<path fill="none" stroke="black" stroke-dasharray="1,5" d="M152.218,-287.991C150.33,-249.446 144.928,-152.534 135,-72 133.516,-59.9581 131.218,-46.479 129.316,-36.1276"/>
</g>
<!-- z -->
<g id="node6" class="node"><title>z</title>
<ellipse fill="none" stroke="black" cx="99" cy="-306" rx="18" ry="18"/>
<text text-anchor="middle" x="99" y="-302.3" font-family="Times,serif" font-size="14.00">z</text>
</g>
<!-- z&#45;&gt;G -->
<g id="edge4" class="edge"><title>z&#45;&gt;G</title>
<path fill="none" stroke="black" d="M99,-287.697C99,-279.983 99,-270.712 99,-262.112"/>
<polygon fill="black" stroke="black" points="102.5,-262.104 99,-252.104 95.5001,-262.104 102.5,-262.104"/>
</g>
<!-- Q&#45;&gt;c2 -->
<g id="edge7" class="edge"><title>Q&#45;&gt;c2</title>
<path fill="none" stroke="black" d="M105.674,-71.6966C108.839,-63.4906 112.684,-53.5232 116.174,-44.4751"/>
<polygon fill="black" stroke="black" points="119.44,-45.7342 119.773,-35.1446 112.909,-43.215 119.44,-45.7342"/>
</g>
</g>
</svg>
