<?xml version="1.0" encoding="UTF-8" standalone="no"?>
<?xml-stylesheet href="graphs.css" type="text/css"?>
<!DOCTYPE svg PUBLIC "-//W3C//DTD SVG 1.1//EN"
 "http://www.w3.org/Graphics/SVG/1.1/DTD/svg11.dtd">
<!-- Generated by graphviz version 2.38.0 (20140413.2041)
 -->
<!-- Title: D Pages: 1 -->
<svg class="filethetaz-x" width="98" height="116" 
 viewBox="0.00 0.00 98.00 116.00" xmlns="http://www.w3.org/2000/svg" xmlns:xlink="http://www.w3.org/1999/xlink">
<g id="graph0" class="graph" transform="scale(1 1) rotate(0) translate(4 112)">
<title>D</title>
<polygon fill="white" stroke="none" points="-4,4 -4,-112 94,-112 94,4 -4,4"/>
<!-- θ -->
<g id="node1" class="node"><title>θ</title>
<ellipse fill="none" stroke="black" cx="18" cy="-90" rx="18" ry="18"/>
<text text-anchor="middle" x="18" y="-86.3" font-family="Times,serif" font-size="14.00">θ</text>
</g>
<!-- x -->
<g id="node2" class="node"><title>x</title>
<ellipse fill="none" stroke="black" cx="45" cy="-18" rx="18" ry="18"/>
<text text-anchor="middle" x="45" y="-14.3" font-family="Times,serif" font-size="14.00">x</text>
</g>
<!-- θ&#45;&gt;x -->
<g id="edge1" class="edge"><title>θ&#45;&gt;x</title>
<path fill="none" stroke="black" d="M24.2622,-72.7646C27.4996,-64.3715 31.5253,-53.9344 35.1661,-44.4952"/>
<polygon fill="black" stroke="black" points="38.4385,-45.7369 38.7718,-35.1473 31.9075,-43.2178 38.4385,-45.7369"/>
</g>
<!-- z -->
<g id="node3" class="node"><title>z</title>
<ellipse fill="none" stroke="black" cx="72" cy="-90" rx="18" ry="18"/>
<text text-anchor="middle" x="72" y="-86.3" font-family="Times,serif" font-size="14.00">z</text>
</g>
<!-- z&#45;&gt;x -->
<g id="edge2" class="edge"><title>z&#45;&gt;x</title>
<path fill="none" stroke="black" d="M65.7378,-72.7646C62.5004,-64.3715 58.4747,-53.9344 54.8339,-44.4952"/>
<polygon fill="black" stroke="black" points="58.0925,-43.2178 51.2282,-35.1473 51.5615,-45.7369 58.0925,-43.2178"/>
</g>
</g>
</svg>
