<?xml version="1.0" encoding="UTF-8" standalone="no"?>
<?xml-stylesheet href="graphs.css" type="text/css"?>
<!DOCTYPE svg PUBLIC "-//W3C//DTD SVG 1.1//EN"
 "http://www.w3.org/Graphics/SVG/1.1/DTD/svg11.dtd">
<!-- Generated by graphviz version 2.38.0 (20140413.2041)
 -->
<!-- Title: D Pages: 1 -->
<svg class="filex-f-theta" width="62" height="188" 
 viewBox="0.00 0.00 62.00 188.00" xmlns="http://www.w3.org/2000/svg" xmlns:xlink="http://www.w3.org/1999/xlink">
<g id="graph0" class="graph" transform="scale(1 1) rotate(0) translate(4 184)">
<title>D</title>
<polygon fill="white" stroke="none" points="-4,4 -4,-184 58,-184 58,4 -4,4"/>
<!-- x -->
<g id="node1" class="node"><title>x</title>
<ellipse fill="none" stroke="black" cx="27" cy="-18" rx="18" ry="18"/>
<text text-anchor="middle" x="27" y="-14.3" font-family="Times,serif" font-size="14.00">x</text>
</g>
<!-- f -->
<g id="node2" class="node"><title>f</title>
<text text-anchor="middle" x="27" y="-86.3" font-family="Times,serif" font-size="14.00">f</text>
</g>
<!-- x&#45;&gt;f -->
<g id="edge1" class="edge"><title>x&#45;&gt;f</title>
<path fill="none" stroke="black" d="M27,-36.3034C27,-44.0173 27,-53.2875 27,-61.8876"/>
<polygon fill="black" stroke="black" points="23.5001,-61.8956 27,-71.8957 30.5001,-61.8957 23.5001,-61.8956"/>
</g>
<!-- θ -->
<g id="node3" class="node"><title>θ</title>
<ellipse fill="none" stroke="black" cx="27" cy="-162" rx="18" ry="18"/>
<text text-anchor="middle" x="27" y="-158.3" font-family="Times,serif" font-size="14.00">θ</text>
</g>
<!-- f&#45;&gt;θ -->
<g id="edge2" class="edge"><title>f&#45;&gt;θ</title>
<path fill="none" stroke="black" d="M27,-108.303C27,-116.017 27,-125.288 27,-133.888"/>
<polygon fill="black" stroke="black" points="23.5001,-133.896 27,-143.896 30.5001,-133.896 23.5001,-133.896"/>
</g>
</g>
</svg>
