<?xml version="1.0" encoding="UTF-8" standalone="no"?>
<?xml-stylesheet href="graphs.css" type="text/css"?>
<!DOCTYPE svg PUBLIC "-//W3C//DTD SVG 1.1//EN"
 "http://www.w3.org/Graphics/SVG/1.1/DTD/svg11.dtd">
<!-- Generated by graphviz version 2.38.0 (20140413.2041)
 -->
<!-- Title: D Pages: 1 -->
<svg class="filex-g-thetaz" width="98" height="188" 
 viewBox="0.00 0.00 98.00 188.00" xmlns="http://www.w3.org/2000/svg" xmlns:xlink="http://www.w3.org/1999/xlink">
<g id="graph0" class="graph" transform="scale(1 1) rotate(0) translate(4 184)">
<title>D</title>
<polygon fill="white" stroke="none" points="-4,4 -4,-184 94,-184 94,4 -4,4"/>
<!-- x -->
<g id="node1" class="node"><title>x</title>
<ellipse fill="none" stroke="black" cx="45" cy="-18" rx="18" ry="18"/>
<text text-anchor="middle" x="45" y="-14.3" font-family="Times,serif" font-size="14.00">x</text>
</g>
<!-- g -->
<g id="node2" class="node"><title>g</title>
<text text-anchor="middle" x="45" y="-86.3" font-family="Times,serif" font-size="14.00">g</text>
</g>
<!-- x&#45;&gt;g -->
<g id="edge1" class="edge"><title>x&#45;&gt;g</title>
<path fill="none" stroke="black" d="M45,-36.3034C45,-44.0173 45,-53.2875 45,-61.8876"/>
<polygon fill="black" stroke="black" points="41.5001,-61.8956 45,-71.8957 48.5001,-61.8957 41.5001,-61.8956"/>
</g>
<!-- θ -->
<g id="node3" class="node"><title>θ</title>
<ellipse fill="none" stroke="black" cx="18" cy="-162" rx="18" ry="18"/>
<text text-anchor="middle" x="18" y="-158.3" font-family="Times,serif" font-size="14.00">θ</text>
</g>
<!-- g&#45;&gt;θ -->
<g id="edge2" class="edge"><title>g&#45;&gt;θ</title>
<path fill="none" stroke="black" d="M38.3258,-108.303C35.1606,-116.509 31.3161,-126.477 27.8261,-135.525"/>
<polygon fill="black" stroke="black" points="24.5605,-134.266 24.2272,-144.855 31.0915,-136.785 24.5605,-134.266"/>
</g>
<!-- z -->
<g id="node4" class="node"><title>z</title>
<ellipse fill="none" stroke="black" cx="72" cy="-162" rx="18" ry="18"/>
<text text-anchor="middle" x="72" y="-158.3" font-family="Times,serif" font-size="14.00">z</text>
</g>
<!-- g&#45;&gt;z -->
<g id="edge3" class="edge"><title>g&#45;&gt;z</title>
<path fill="none" stroke="black" stroke-dasharray="5,2" d="M51.6742,-108.303C54.8394,-116.509 58.6839,-126.477 62.1739,-135.525"/>
<polygon fill="black" stroke="black" points="58.9085,-136.785 65.7728,-144.855 65.4395,-134.266 58.9085,-136.785"/>
</g>
</g>
</svg>
